<?xml version="1.0" ?><svg id="Layer_1" style="enable-background:new 0 0 512 512;" version="1.1" viewBox="0 0 512 512" xml:space="preserve" xmlns="http://www.w3.org/2000/svg" xmlns:xlink="http://www.w3.org/1999/xlink"><style type="text/css">
	.st0{fill:#FFFFFF;}
	.st1{fill:#7FA6D8;}
	.st2{fill:#F1BD51;}
	.st3{fill:#7B371D;}
</style><g id="XMLID_1_"><rect class="st0" height="99.6" id="XMLID_126_" width="512" y="206.2"/><rect class="st1" height="99.5" id="XMLID_125_" width="512" y="106.7"/><rect class="st1" height="99.6" id="XMLID_124_" width="512" y="305.8"/><path class="st2" d="M254,256l1.5,40.7c0,0,0,0.8,0.5,0.8c0.5,0,0.5-0.8,0.5-0.8l1.5-40.7H254z" id="XMLID_123_"/><g><path class="st3" d="M256,297.6c-0.5,0-0.6-0.6-0.6-0.9l-1.5-40.7l0.3,0l1.5,40.7c0,0,0,0.6,0.4,0.6    c0.4,0,0.4-0.6,0.4-0.6l1.5-40.7l-1.3,40.7C256.6,297,256.5,297.6,256,297.6L256,297.6z" id="XMLID_122_"/></g><polygon class="st3" id="XMLID_121_" points="255,256 256,283.9 257,256  "/><path class="st2" d="M252.2,269.1c-2.3,5.1-0.4,9.3-2.7,13.8c-2.3,4.5-0.9,8.2-1,10.2c-0.1,2.1-1.8,2.6-1.4,3.1   c0.4,0.5,2.2-0.5,2.9-3.2c0.7-2.7-0.9-4.3,1.9-9.8c2.8-5.5,0.6-8,3.4-12.9L252.2,269.1z" id="XMLID_120_"/><g><path class="st3" d="M247.5,296.5l-0.5-0.1c-0.3-0.3,0-0.6,0.3-0.9c0.4-0.4,1-1.1,1.1-2.3c0-0.5,0-1.2-0.1-2    c-0.2-2.1-0.6-5,1.2-8.3c1.1-2.2,1.2-4.3,1.3-6.6c0.1-2.3,0.2-4.6,1.4-7.2l0.2,0.1c-1.2,2.5-1.3,4.9-1.3,7.1    c-0.1,2.3-0.2,4.4-1.3,6.7c-1.7,3.2-1.4,6.1-1.2,8.1c0.1,0.8,0.2,1.5,0.1,2c-0.1,1.2-0.7,2-1.1,2.4c-0.3,0.4-0.4,0.5-0.3,0.6    c1-0.1,2.1-1.1,2.6-3.2c0.2-0.9,0.2-1.7,0.2-2.5c-0.1-1.7-0.2-3.6,1.7-7.3c1.4-2.7,1.5-4.7,1.7-6.6c0.2-2,0.3-3.8,1.7-6.3    c-1.2,2.6-1.3,4.4-1.5,6.3c-0.1,1.9-0.3,3.9-1.7,6.7c-1.8,3.6-1.8,5.5-1.7,7.1c0,0.9,0.1,1.7-0.2,2.6    C249.5,295.1,248.4,296.2,247.5,296.5L247.5,296.5L247.5,296.5z" id="XMLID_119_"/></g><path class="st3" d="M252.8,270.4c-1.8,5.1,0.1,8.5-2.3,12.8c2.7-3.1,0.9-7.1,3.3-12.3L252.8,270.4z" id="XMLID_118_"/><path class="st2" d="M258.1,256l-1.5-40.7c0,0,0-0.8-0.5-0.8c-0.5,0-0.5,0.8-0.5,0.8L254,256H258.1z" id="XMLID_117_"/><g><path class="st3" d="M257.9,256l-1.5-40.7c0,0,0-0.6-0.4-0.6c-0.4,0-0.4,0.6-0.4,0.6l-1.5,40.7l1.3-40.7    c0-0.3,0.1-0.9,0.6-0.9c0.5,0,0.6,0.6,0.6,0.9l1.5,40.7L257.9,256L257.9,256z" id="XMLID_116_"/></g><polygon class="st3" id="XMLID_115_" points="257,256 256,228 255,256  "/><path class="st2" d="M259.9,242.8c2.3-5.1,0.3-9.3,2.7-13.8c2.3-4.5,0.9-8.1,1.1-10.2c0.1-2.1,1.8-2.6,1.4-3.1   c-0.4-0.5-2.2,0.5-2.9,3.2c-0.7,2.7,0.9,4.3-1.9,9.8c-2.8,5.5-0.6,8-3.4,12.9L259.9,242.8z" id="XMLID_114_"/><g><path class="st3" d="M260,242.9l-0.2-0.1c1.1-2.5,1.2-4.8,1.3-7.1c0.1-2.3,0.2-4.5,1.3-6.7c1.7-3.2,1.4-6,1.2-8.1    c-0.1-0.8-0.2-1.5-0.1-2c0.1-1.2,0.7-2,1.1-2.4c0.3-0.4,0.4-0.5,0.3-0.6c-1,0.1-2.1,1.1-2.7,3.1c-0.2,0.9-0.2,1.7-0.2,2.5    c0.1,1.7,0.2,3.6-1.7,7.3c-1.4,2.7-1.5,4.7-1.7,6.6c-0.2,2-0.3,3.8-1.7,6.3c1.2-2.6,1.3-4.4,1.5-6.3c0.1-1.9,0.3-3.9,1.7-6.7    c1.8-3.6,1.8-5.5,1.7-7.1c0-0.9-0.1-1.7,0.2-2.6c0.5-2.2,1.8-3.2,2.5-3.4l0.1,0l0.5,0.2c0.3,0.3,0,0.6-0.3,0.9    c-0.4,0.5-1,1.1-1.1,2.3c0,0.6,0,1.2,0.1,2c0.2,2.1,0.5,5-1.2,8.3c-1.1,2.2-1.2,4.4-1.3,6.6C261.2,238,261.1,240.3,260,242.9    L260,242.9z" id="XMLID_113_"/></g><path class="st3" d="M259.2,241.5c1.8-5.1-0.1-8.5,2.3-12.8c-2.7,3.1-0.9,7.1-3.3,12.4L259.2,241.5z" id="XMLID_112_"/><path class="st2" d="M256,253.9l-40.7,1.5c0,0-0.8,0-0.8,0.5c0,0.5,0.8,0.5,0.8,0.5L256,258V253.9z" id="XMLID_111_"/><g><path class="st3" d="M256,257.9l-40.7-1.3c-0.3,0-0.9-0.1-0.9-0.6c0-0.5,0.6-0.6,0.9-0.6l40.7-1.5l0,0.3    l-40.7,1.5c0,0-0.6,0-0.6,0.4c0,0.4,0.6,0.4,0.6,0.4L256,257.9L256,257.9z" id="XMLID_110_"/></g><polygon class="st3" id="XMLID_109_" points="256,255 228,256 256,257  "/><path class="st2" d="M242.8,252.1c-5.1-2.3-9.3-0.3-13.8-2.7c-4.5-2.3-8.2-0.9-10.2-1c-2-0.2-2.6-1.8-3.1-1.4   c-0.5,0.4,0.5,2.2,3.2,2.9c2.7,0.7,4.3-0.9,9.8,1.9c5.5,2.8,8,0.6,12.9,3.4L242.8,252.1z" id="XMLID_108_"/><g><path class="st3" d="M241.6,255c-2.6-1.2-4.4-1.3-6.3-1.5c-1.9-0.1-3.9-0.3-6.7-1.7c-3.6-1.9-5.5-1.8-7.1-1.7    c-0.9,0-1.7,0.1-2.6-0.2c-2-0.5-3.2-1.6-3.4-2.5l0-0.1l0.1-0.6c0.3-0.3,0.6,0,0.9,0.3c0.5,0.4,1.1,1,2.3,1.1c0.5,0.1,1.2,0,2-0.1    c2.1-0.2,5-0.6,8.3,1.2c2.2,1.2,4.3,1.2,6.6,1.3c2.3,0.1,4.6,0.2,7.2,1.3l-0.1,0.2c-2.5-1.2-4.8-1.2-7.1-1.3    c-2.3-0.1-4.4-0.2-6.7-1.3c-3.2-1.7-6.1-1.4-8.2-1.1c-0.8,0.1-1.4,0.1-2,0.1c-1.2-0.1-1.9-0.7-2.4-1.1c-0.3-0.3-0.5-0.4-0.6-0.3    c0.1,1,1.1,2.1,3.1,2.7c0.9,0.2,1.7,0.2,2.5,0.2c1.7-0.1,3.6-0.2,7.3,1.7c2.7,1.4,4.7,1.5,6.6,1.7    C237.3,253.5,239.2,253.6,241.6,255L241.6,255z" id="XMLID_107_"/></g><path class="st3" d="M241.5,252.8c-5.1-1.8-8.5,0.1-12.8-2.3c3.1,2.7,7.1,0.9,12.3,3.3L241.5,252.8z" id="XMLID_106_"/><path class="st2" d="M256,258l40.7-1.5c0,0,0.8,0,0.8-0.5c0-0.5-0.8-0.5-0.8-0.5l-40.7-1.5V258z" id="XMLID_105_"/><g><path class="st3" d="M256,258.2l0-0.3l40.7-1.5c0,0,0.6,0,0.6-0.4c0-0.4-0.6-0.4-0.6-0.4l-40.7-1.5l40.7,1.3    c0.3,0,0.9,0.1,0.9,0.6c0,0.5-0.6,0.6-0.9,0.6L256,258.2L256,258.2z" id="XMLID_104_"/></g><polygon class="st3" id="XMLID_103_" points="256,257 284,256 256,255  "/><path class="st2" d="M269.2,259.8c5.1,2.3,9.3,0.3,13.8,2.7c4.5,2.3,8.1,0.9,10.2,1c2,0.2,2.6,1.8,3.1,1.4   c0.5-0.4-0.5-2.2-3.2-2.9c-2.7-0.7-4.3,1-9.8-1.9c-5.5-2.8-8-0.6-12.9-3.4L269.2,259.8z" id="XMLID_102_"/><g><path class="st3" d="M296.1,265.2c-0.2,0-0.4-0.2-0.7-0.4c-0.4-0.4-1.1-1-2.3-1.1c-0.5,0-1.2,0-2,0.1    c-2.1,0.2-5,0.6-8.3-1.2c-2.2-1.2-4.4-1.2-6.6-1.3c-2.3-0.1-4.6-0.2-7.2-1.4l0.1-0.2c2.5,1.2,4.8,1.2,7.1,1.3    c2.3,0.1,4.5,0.2,6.7,1.4c3.2,1.7,6,1.4,8.1,1.1c0.8-0.1,1.5-0.2,2-0.1c1.2,0.1,1.9,0.7,2.4,1.1c0.4,0.3,0.5,0.4,0.6,0.3    c-0.1-1-1.1-2.1-3.1-2.7c-0.9-0.2-1.7-0.2-2.5-0.2c-1.7,0.1-3.6,0.2-7.3-1.7c-2.7-1.4-4.7-1.5-6.6-1.7c-2-0.1-3.8-0.3-6.3-1.7    c2.6,1.2,4.4,1.3,6.3,1.5c1.9,0.1,3.9,0.3,6.7,1.7c3.6,1.8,5.5,1.7,7.1,1.7c0.9,0,1.7-0.1,2.6,0.2c2.2,0.5,3.2,1.8,3.4,2.5l0,0.1    l-0.2,0.5C296.2,265.1,296.2,265.2,296.1,265.2L296.1,265.2z" id="XMLID_101_"/></g><path class="st3" d="M270.5,259.2c5.1,1.8,8.5-0.1,12.8,2.3c-3.1-2.7-7.1-0.9-12.4-3.3L270.5,259.2z" id="XMLID_100_"/><path class="st2" d="M254.6,254.6l-27.7,29.9c0,0-0.5,0.6-0.2,0.9c0.4,0.4,0.9-0.2,0.9-0.2l29.9-27.7L254.6,254.6z" id="XMLID_99_"/><g><path class="st3" d="M227,285.6c-0.7-0.5-0.4-1-0.2-1.2l27.7-29.9l0.2,0.2l-27.7,29.9c0,0-0.4,0.5-0.2,0.7    c0.3,0.3,0.7-0.2,0.7-0.2l29.9-27.7l-29.7,27.9C227.7,285.2,227.3,285.6,227,285.6L227,285.6z" id="XMLID_98_"/></g><polygon class="st3" id="XMLID_97_" points="255.3,255.3 236.2,275.7 256.7,256.7  "/><path class="st2" d="M244,262.6c-5.3,2-6.8,6.4-11.6,7.9c-4.8,1.5-6.4,5.1-8,6.5c-1.5,1.3-3.2,0.6-3.2,1.2   c0,0.6,1.9,1.2,4.3-0.2c2.4-1.4,2.4-3.7,8.2-5.6c5.9-1.9,6-5.2,11.5-6.7L244,262.6z" id="XMLID_96_"/><g><path class="st3" d="M222.6,278.9c-0.5,0-0.9-0.1-1.2-0.3l-0.4-0.5c0-0.4,0.4-0.4,0.9-0.4c0.6,0,1.5-0.1,2.4-0.9    c0.4-0.4,0.8-0.9,1.3-1.5c1.3-1.7,3.1-3.9,6.7-5c2.4-0.7,4-2.2,5.6-3.7c1.6-1.5,3.4-3.1,6-4.1l0.1,0.2c-2.6,1-4.3,2.5-5.9,4.1    c-1.7,1.6-3.3,3-5.7,3.8c-3.5,1.1-5.3,3.3-6.6,5c-0.5,0.6-0.9,1.1-1.3,1.5c-0.9,0.8-1.9,0.9-2.5,0.9c-0.5,0-0.6,0.1-0.6,0.2    c0.8,0.6,2.3,0.7,4.1-0.4c0.8-0.5,1.3-1.1,1.9-1.7c1.1-1.3,2.4-2.7,6.3-3.9c2.9-0.9,4.4-2.2,5.8-3.4c1.5-1.3,2.9-2.5,5.7-3.2    c-2.7,1-4,2.2-5.5,3.4c-1.5,1.3-3,2.6-5.9,3.5c-3.8,1.2-5.1,2.6-6.2,3.9c-0.6,0.6-1.1,1.2-2,1.7    C224.4,278.6,223.4,278.9,222.6,278.9L222.6,278.9z" id="XMLID_95_"/></g><path class="st3" d="M243.5,264c-4.9,2.3-5.9,6.1-10.7,7.4c4.1-0.3,5.7-4.4,11.1-6.4L243.5,264z" id="XMLID_94_"/><path class="st2" d="M257.5,257.4l27.7-29.9c0,0,0.5-0.5,0.2-0.9c-0.4-0.4-0.9,0.2-0.9,0.2l-29.9,27.7L257.5,257.4z   " id="XMLID_93_"/><g><path class="st3" d="M257.5,257.5l-0.2-0.2l27.7-29.9c0,0,0.4-0.5,0.2-0.7c-0.3-0.3-0.7,0.2-0.7,0.2l-29.9,27.7    l29.7-27.9c0.2-0.2,0.7-0.5,1.1-0.2c0.3,0.4,0,0.9-0.2,1.1L257.5,257.5L257.5,257.5z" id="XMLID_92_"/></g><polygon class="st3" id="XMLID_91_" points="256.7,256.7 275.8,236.2 255.3,255.3  "/><path class="st2" d="M268,249.4c5.3-2,6.8-6.4,11.6-7.9c4.8-1.5,6.4-5.2,8-6.5c1.6-1.3,3.1-0.5,3.2-1.2   c0-0.6-1.9-1.2-4.3,0.2c-2.4,1.4-2.4,3.7-8.2,5.6c-5.9,1.9-6,5.2-11.5,6.7L268,249.4z" id="XMLID_90_"/><g><path class="st3" d="M268.1,249.5l-0.1-0.2c2.6-1,4.3-2.5,5.9-4.1c1.7-1.6,3.3-3,5.7-3.8c3.5-1.1,5.3-3.3,6.6-4.9    c0.5-0.6,0.9-1.2,1.4-1.5c0.9-0.8,1.9-0.9,2.5-0.9c0.5,0,0.6-0.1,0.6-0.2c-0.8-0.6-2.3-0.7-4.1,0.4c-0.8,0.5-1.3,1.1-1.9,1.7    c-1.1,1.3-2.4,2.7-6.4,3.9c-2.9,0.9-4.4,2.2-5.8,3.5c-1.5,1.3-2.9,2.5-5.7,3.2c2.6-1,4-2.2,5.5-3.4c1.5-1.3,3-2.6,5.9-3.5    c3.8-1.2,5.1-2.6,6.2-3.9c0.6-0.6,1.1-1.2,2-1.7c1.8-1.1,3.4-1.1,4.1-0.7l0.4,0.5c0,0.4-0.4,0.4-0.9,0.4c-0.6,0-1.5,0.1-2.4,0.8    c-0.4,0.4-0.8,0.9-1.3,1.5c-1.3,1.7-3.1,3.9-6.7,5c-2.4,0.7-4,2.2-5.6,3.7C272.4,247,270.7,248.5,268.1,249.5L268.1,249.5z" id="XMLID_89_"/></g><path class="st3" d="M268.5,248c4.9-2.3,6-6.1,10.7-7.4c-4.1,0.3-5.7,4.4-11.1,6.4L268.5,248z" id="XMLID_88_"/><path class="st2" d="M257.5,254.6l-29.9-27.7c0,0-0.5-0.5-0.9-0.2c-0.4,0.4,0.2,0.9,0.2,0.9l27.7,29.9L257.5,254.6z   " id="XMLID_87_"/><g><path class="st3" d="M254.6,257.4l-27.9-29.7c-0.2-0.2-0.5-0.7-0.2-1.1c0.4-0.4,0.9,0,1.1,0.2l29.9,27.7l-0.2,0.2    l-29.9-27.7c0,0-0.5-0.4-0.7-0.2c-0.3,0.3,0.2,0.7,0.2,0.7L254.6,257.4L254.6,257.4z" id="XMLID_86_"/></g><polygon class="st3" id="XMLID_85_" points="256.7,255.3 236.2,236.2 255.3,256.7  "/><path class="st2" d="M249.4,244c-2-5.3-6.4-6.8-7.9-11.6c-1.5-4.8-5.1-6.4-6.5-8c-1.3-1.6-0.6-3.1-1.2-3.2   c-0.6,0-1.2,1.9,0.2,4.3c1.4,2.4,3.7,2.4,5.6,8.2c1.9,5.9,5.2,6,6.7,11.5L249.4,244z" id="XMLID_84_"/><g><path class="st3" d="M246.5,245.2c-1-2.7-2.2-4-3.4-5.5c-1.3-1.5-2.6-3-3.5-5.9c-1.2-3.8-2.6-5.1-3.9-6.2    c-0.6-0.6-1.2-1.1-1.7-2c-1.1-1.9-1-3.5-0.6-4.1l0.5-0.3c0.4,0,0.4,0.4,0.4,0.9c0,0.6,0.1,1.5,0.9,2.4c0.4,0.4,0.9,0.8,1.5,1.3    c1.6,1.3,3.9,3.1,5,6.7c0.7,2.4,2.2,3.9,3.7,5.6c1.5,1.7,3.1,3.4,4.1,6l-0.2,0.1c-1-2.6-2.5-4.3-4.1-6c-1.6-1.7-3-3.3-3.8-5.7    c-1.1-3.5-3.3-5.2-4.9-6.5c-0.6-0.5-1.2-0.9-1.5-1.4c-0.8-0.9-0.9-1.9-0.9-2.5c0-0.5-0.1-0.6-0.2-0.6c-0.6,0.8-0.8,2.3,0.3,4.1    c0.5,0.8,1.1,1.3,1.7,1.9c1.3,1.1,2.7,2.4,3.9,6.4c0.9,2.9,2.2,4.4,3.5,5.8C244.6,241,245.8,242.4,246.5,245.2L246.5,245.2z" id="XMLID_83_"/></g><path class="st3" d="M248.1,243.5c-2.3-4.9-6.1-5.9-7.4-10.7c0.3,4.1,4.4,5.7,6.4,11.1L248.1,243.5z" id="XMLID_82_"/><path class="st2" d="M254.6,257.4l29.9,27.7c0,0,0.5,0.5,0.9,0.2c0.3-0.3-0.2-0.9-0.2-0.9l-27.7-29.9L254.6,257.4z" id="XMLID_81_"/><g><path class="st3" d="M285,285.4c-0.5,0-0.7-0.2-0.7-0.2l-29.9-27.7l0.2-0.2l29.9,27.7c0,0,0.5,0.5,0.7,0.2    c0.3-0.3-0.2-0.7-0.2-0.7l-27.7-29.9l27.9,29.7c0.2,0.2,0.5,0.7,0.2,1.1C285.3,285.4,285.2,285.4,285,285.4L285,285.4z" id="XMLID_80_"/></g><polygon class="st3" id="XMLID_79_" points="255.3,256.7 275.8,275.7 256.7,255.3  "/><path class="st2" d="M262.6,268c2,5.3,6.4,6.8,7.9,11.6c1.5,4.8,5.2,6.4,6.5,7.9c1.3,1.6,0.6,3.2,1.2,3.2   c0.6,0,1.2-1.9-0.2-4.3c-1.4-2.4-3.7-2.4-5.6-8.2c-1.9-5.9-5.2-6-6.7-11.5L262.6,268z" id="XMLID_78_"/><g><path class="st3" d="M278.1,290.9c-0.4,0-0.4-0.4-0.4-0.9c0-0.6-0.1-1.5-0.8-2.4c-0.4-0.4-0.9-0.8-1.5-1.3    c-1.7-1.3-3.9-3.1-5-6.7c-0.7-2.4-2.2-4-3.8-5.6c-1.5-1.6-3.1-3.4-4.1-6l0.2-0.1c1,2.6,2.5,4.3,4.1,5.9c1.6,1.7,3,3.3,3.8,5.7    c1.1,3.5,3.3,5.3,5,6.6c0.6,0.5,1.1,0.9,1.5,1.3c0.8,0.9,0.9,1.9,0.9,2.5c0,0.5,0.1,0.6,0.2,0.6c0.6-0.8,0.8-2.3-0.3-4.1    c-0.5-0.8-1.1-1.3-1.7-1.9c-1.3-1.1-2.7-2.4-3.9-6.3c-0.9-2.9-2.2-4.4-3.5-5.8c-1.3-1.5-2.5-2.9-3.2-5.7c1,2.6,2.2,4,3.4,5.5    c1.3,1.5,2.6,3,3.5,5.9c1.2,3.8,2.6,5.1,3.9,6.2c0.6,0.6,1.2,1.1,1.7,2c1.1,1.8,1.1,3.4,0.6,4.1L278.1,290.9L278.1,290.9z" id="XMLID_77_"/></g><path class="st3" d="M264,268.5c2.3,4.9,6.1,5.9,7.4,10.7c-0.3-4.1-4.4-5.7-6.4-11.1L264,268.5z" id="XMLID_76_"/><path class="st2" d="M254.1,255.2l-14.2,38.2c0,0-0.3,0.7,0.2,0.9c0.5,0.2,0.8-0.5,0.8-0.5l17-37L254.1,255.2z" id="XMLID_75_"/><g><path class="st3" d="M240.5,294.4c-0.9-0.2-0.8-0.8-0.7-1.1l14.2-38.2l0.2,0.1l-14.2,38.2c0,0-0.2,0.6,0.1,0.8    l0.6-0.5l17-37L241,293.9C241,293.9,240.8,294.3,240.5,294.4L240.5,294.4z" id="XMLID_74_"/></g><polygon class="st3" id="XMLID_73_" points="255.1,255.6 245.3,281.8 256.9,256.4  "/><path class="st2" d="M247.4,266.7c-4.1,3.8-3.9,8.5-7.7,11.7c-3.9,3.2-3.9,7.2-4.9,9c-0.9,1.8-2.7,1.7-2.5,2.3   c0.2,0.6,2.2,0.4,3.9-1.9c1.7-2.3,0.8-4.3,5.5-8.3c4.7-4,3.6-7.1,8-10.6L247.4,266.7z" id="XMLID_72_"/><g><path class="st3" d="M232.9,290.2c-0.1,0-0.1,0-0.2,0l-0.6-0.4c-0.1-0.4,0.2-0.5,0.6-0.7c0.5-0.3,1.3-0.7,1.9-1.7    c0.3-0.5,0.4-1.2,0.7-1.9c0.6-2,1.4-4.8,4.2-7.2c1.9-1.6,2.8-3.5,3.8-5.6c0.9-2,1.9-4.2,4-6.1l0.2,0.2c-2,1.9-3,4-3.9,6    c-1,2.1-1.9,4-3.8,5.7c-2.8,2.3-3.6,5.1-4.2,7.1c-0.2,0.8-0.4,1.4-0.7,1.9c-0.6,1.1-1.4,1.5-2,1.8c-0.4,0.2-0.6,0.3-0.5,0.4    c1,0.3,2.4-0.2,3.6-1.9c0.6-0.8,0.8-1.5,1.1-2.3c0.6-1.6,1.3-3.4,4.4-6.1c2.3-2,3.2-3.7,4.1-5.4c0.9-1.7,1.7-3.4,4-5.1    c-2.1,1.9-2.9,3.5-3.8,5.3c-0.9,1.7-1.8,3.5-4.1,5.5c-3.1,2.6-3.7,4.4-4.3,6c-0.3,0.8-0.6,1.6-1.2,2.4    C235.1,289.5,233.8,290.2,232.9,290.2L232.9,290.2z" id="XMLID_71_"/></g><path class="st3" d="M247.5,268.1c-3.6,4-3.2,7.9-7.1,10.9c3.7-1.8,3.6-6.2,7.8-10.1L247.5,268.1z" id="XMLID_70_"/><path class="st2" d="M257.9,256.8l14.2-38.2c0,0,0.3-0.7-0.2-0.9c-0.5-0.2-0.8,0.5-0.8,0.5l-17,37L257.9,256.8z" id="XMLID_69_"/><g><path class="st3" d="M258,256.8l-0.2-0.1l14.2-38.2c0,0,0.2-0.6-0.1-0.7l-0.6,0.4l-17,37l16.8-37.1    c0,0,0.2-0.4,0.5-0.6l0.7,0.3c0.1,0.3,0,0.7,0,0.8L258,256.8L258,256.8z" id="XMLID_68_"/></g><polygon class="st3" id="XMLID_67_" points="256.9,256.4 266.7,230.2 255.1,255.6  "/><path class="st2" d="M264.6,245.3c4.1-3.8,3.9-8.5,7.7-11.7c3.9-3.2,3.9-7.2,4.9-9c0.9-1.8,2.7-1.7,2.5-2.3   c-0.2-0.6-2.2-0.4-3.9,1.9c-1.7,2.3-0.8,4.3-5.5,8.3c-4.7,4-3.6,7.1-8,10.6L264.6,245.3z" id="XMLID_66_"/><g><path class="st3" d="M264.7,245.4l-0.2-0.2c2-1.9,3-4,3.9-6c1-2.1,1.9-4,3.8-5.7c2.8-2.3,3.6-5.1,4.2-7.1    c0.2-0.8,0.4-1.4,0.7-1.9c0.6-1.1,1.4-1.5,2-1.8c0.4-0.2,0.5-0.3,0.5-0.4c-1-0.3-2.4,0.2-3.6,1.9c-0.6,0.8-0.8,1.5-1.1,2.3    c-0.6,1.6-1.2,3.4-4.4,6.1c-2.3,2-3.2,3.7-4.1,5.4c-0.9,1.8-1.7,3.4-4,5.1c2.1-1.9,2.9-3.5,3.8-5.3s1.8-3.5,4.1-5.5    c3.1-2.6,3.7-4.4,4.3-6c0.3-0.8,0.6-1.6,1.2-2.4c1.2-1.7,2.7-2.3,3.5-2.2l0.6,0.4c0.1,0.4-0.2,0.5-0.6,0.7    c-0.5,0.3-1.3,0.7-1.9,1.7c-0.3,0.5-0.4,1.1-0.7,1.9c-0.6,2-1.4,4.8-4.2,7.2c-1.9,1.6-2.8,3.5-3.8,5.6    C267.7,241.4,266.8,243.5,264.7,245.4L264.7,245.4z" id="XMLID_65_"/></g><path class="st3" d="M264.5,243.9c3.6-4,3.2-7.9,7.1-10.9c-3.7,1.8-3.6,6.2-7.8,10.2L264.5,243.9z" id="XMLID_64_"/><path class="st2" d="M256.8,254.1l-38.2-14.2c0,0-0.7-0.3-0.9,0.2c-0.2,0.5,0.5,0.8,0.5,0.8l37,17L256.8,254.1z" id="XMLID_63_"/><g><path class="st3" d="M255.3,257.8L218.1,241c-0.3-0.1-0.8-0.5-0.6-0.9c0.2-0.5,0.8-0.4,1.1-0.2l38.2,14.2l-0.1,0.2    l-38.2-14.2c0,0-0.6-0.2-0.8,0.1c-0.1,0.4,0.4,0.6,0.4,0.6L255.3,257.8L255.3,257.8z" id="XMLID_62_"/></g><polygon class="st3" id="XMLID_61_" points="256.4,255.1 230.2,245.3 255.6,256.9  "/><path class="st2" d="M245.3,247.4c-3.9-4.1-8.5-3.9-11.7-7.7c-3.2-3.9-7.2-3.9-9-4.9c-1.8-0.9-1.7-2.7-2.3-2.5   c-0.6,0.2-0.4,2.2,1.9,3.9c2.2,1.7,4.3,0.8,8.3,5.5c4,4.7,7.1,3.6,10.6,8L245.3,247.4z" id="XMLID_60_"/><g><path class="st3" d="M243.1,249.6c-1.9-2.1-3.5-2.9-5.3-3.8c-1.7-0.9-3.5-1.8-5.5-4.1c-2.6-3.1-4.4-3.7-6-4.3    c-0.8-0.3-1.6-0.6-2.3-1.2c-1.7-1.3-2.3-2.7-2.2-3.6l0.4-0.5c0.3-0.1,0.5,0.2,0.7,0.6c0.3,0.5,0.7,1.3,1.7,1.9    c0.5,0.2,1.1,0.4,1.8,0.6c2,0.6,4.8,1.4,7.2,4.3c1.6,1.9,3.5,2.8,5.6,3.7c2.1,0.9,4.2,1.9,6.1,4l-0.2,0.2c-1.9-2-4-3-6.1-3.9    c-2.1-1-4-1.9-5.7-3.8c-2.3-2.8-5.1-3.6-7.1-4.2c-0.7-0.2-1.4-0.4-1.9-0.6c-1.1-0.6-1.5-1.4-1.8-2c-0.2-0.4-0.3-0.6-0.4-0.5    c-0.3,1,0.2,2.4,1.9,3.7c0.7,0.6,1.5,0.8,2.3,1.1c1.6,0.6,3.4,1.2,6.1,4.4c2,2.3,3.7,3.2,5.4,4.1    C239.7,246.5,241.4,247.3,243.1,249.6L243.1,249.6z" id="XMLID_59_"/></g><path class="st3" d="M243.9,247.5c-4-3.6-7.9-3.2-10.9-7.1c1.8,3.7,6.2,3.6,10.2,7.8L243.9,247.5z" id="XMLID_58_"/><path class="st2" d="M255.2,257.9l38.2,14.2c0,0,0.7,0.3,0.9-0.2c0.2-0.5-0.5-0.8-0.5-0.8l-37-17L255.2,257.9z" id="XMLID_57_"/><g><path class="st3" d="M293.9,272.3c-0.2,0-0.4,0-0.5-0.1L255.2,258l0.1-0.2l38.2,14.2c0,0,0.6,0.2,0.8-0.1    c0.1-0.3-0.4-0.6-0.5-0.6l-37-17l37.2,16.8c0.3,0.1,0.8,0.5,0.6,0.9C294.3,272.2,294.1,272.3,293.9,272.3L293.9,272.3z" id="XMLID_56_"/></g><polygon class="st3" id="XMLID_55_" points="255.6,256.9 281.8,266.7 256.4,255.1  "/><path class="st2" d="M266.7,264.6c3.8,4.1,8.5,3.9,11.7,7.7c3.2,3.9,7.2,3.9,9,4.9c1.8,0.9,1.7,2.7,2.3,2.5   c0.6-0.2,0.4-2.2-1.9-3.9c-2.2-1.7-4.3-0.8-8.3-5.5c-4-4.7-7.1-3.6-10.6-8.1L266.7,264.6z" id="XMLID_54_"/><g><path class="st3" d="M289.7,279.8c-0.3,0-0.4-0.3-0.6-0.7c-0.3-0.5-0.7-1.3-1.7-1.9c-0.5-0.2-1.1-0.4-1.9-0.6    c-2-0.6-4.8-1.4-7.2-4.2c-1.6-1.9-3.6-2.8-5.6-3.7c-2.1-0.9-4.2-1.9-6.1-4l0.2-0.2c1.9,2,4,3,6,3.9c2.1,0.9,4.1,1.9,5.7,3.8    c2.3,2.8,5.1,3.6,7.1,4.2c0.8,0.2,1.4,0.4,1.9,0.7c1.1,0.6,1.5,1.4,1.8,2c0.2,0.4,0.3,0.5,0.4,0.5c0.3-1-0.2-2.4-1.9-3.6    c-0.8-0.6-1.5-0.8-2.3-1.1c-1.6-0.6-3.4-1.2-6.1-4.4c-2-2.3-3.7-3.2-5.4-4.1c-1.7-0.9-3.4-1.7-5.2-4c1.9,2.1,3.5,2.9,5.3,3.8    c1.7,0.9,3.5,1.8,5.5,4.1c2.6,3.1,4.4,3.7,6,4.3c0.8,0.3,1.6,0.6,2.3,1.1c1.8,1.3,2.3,2.9,2.2,3.6l-0.4,0.5    C289.7,279.8,289.7,279.8,289.7,279.8L289.7,279.8z" id="XMLID_53_"/></g><path class="st3" d="M268.1,264.5c4,3.6,7.9,3.1,10.9,7.1c-1.8-3.7-6.2-3.6-10.1-7.8L268.1,264.5z" id="XMLID_52_"/><path class="st2" d="M255.2,254.1l-37,17c0,0-0.7,0.3-0.5,0.8c0.2,0.5,0.9,0.2,0.9,0.2l38.2-14.2L255.2,254.1z" id="XMLID_51_"/><g><path class="st3" d="M218.2,272.3c-0.2,0-0.5-0.1-0.6-0.4c-0.2-0.5,0.3-0.8,0.6-0.9l37-17l0.1,0.2l-37,17    c0,0-0.6,0.3-0.5,0.6c0.2,0.4,0.7,0.1,0.7,0.1l38.2-14.2l-38.1,14.4C218.5,272.2,218.3,272.3,218.2,272.3L218.2,272.3z" id="XMLID_50_"/></g><polygon class="st3" id="XMLID_49_" points="255.6,255.1 230.2,266.7 256.4,256.9  "/><path class="st2" d="M242.4,257.5c-5.6-0.2-8.7,3.2-13.7,2.8c-5-0.4-7.9,2.3-9.8,3c-2,0.6-3.1-0.7-3.4-0.1   c-0.3,0.6,1.3,1.8,4.1,1.4c2.8-0.4,3.6-2.5,9.7-2c6.2,0.5,7.6-2.5,13.2-1.8V257.5z" id="XMLID_48_"/><g><path class="st3" d="M218.4,264.7c-1.6,0-2.7-0.6-3-1.1l-0.1-0.6c0.2-0.3,0.5-0.2,1-0.1c0.6,0.2,1.4,0.5,2.5,0.1    c0.5-0.2,1.1-0.5,1.8-0.9c1.9-1,4.3-2.4,8.1-2.1c2.5,0.2,4.5-0.5,6.6-1.3c2.1-0.8,4.3-1.6,7.1-1.5l0,0.3c-2.7-0.1-4.9,0.7-7,1.5    c-2.2,0.8-4.2,1.5-6.7,1.3c-3.6-0.3-6.1,1.1-8,2.1c-0.7,0.4-1.3,0.7-1.8,0.9c-1.2,0.4-2.1,0.1-2.7-0.1c-0.5-0.2-0.6-0.2-0.6-0.1    c0.5,0.9,1.8,1.6,3.9,1.2c0.9-0.1,1.6-0.5,2.4-0.8c1.5-0.7,3.2-1.5,7.4-1.2c3,0.3,4.9-0.4,6.7-1c1.9-0.6,3.6-1.2,6.5-0.8    c-2.9-0.2-4.6,0.5-6.4,1.1c-1.8,0.6-3.7,1.2-6.8,1c-4-0.3-5.7,0.5-7.2,1.2c-0.8,0.4-1.5,0.7-2.5,0.8    C219.1,264.7,218.7,264.7,218.4,264.7L218.4,264.7z" id="XMLID_47_"/></g><path class="st3" d="M241.4,258.6c-5.4,0.3-7.8,3.3-12.7,2.7c3.9,1.3,6.9-1.9,12.7-1.7L241.4,258.6z" id="XMLID_46_"/><path class="st2" d="M256.8,257.9l37-17c0,0,0.7-0.3,0.5-0.8c-0.2-0.5-0.9-0.2-0.9-0.2l-38.2,14.2L256.8,257.9z" id="XMLID_45_"/><g><path class="st3" d="M256.8,258l-0.1-0.2l37-17c0,0,0.6-0.3,0.5-0.6c-0.2-0.3-0.7-0.1-0.7-0.1l-38.2,14.2    l38.1-14.4c0.3-0.1,0.9-0.2,1.1,0.2c0.2,0.5-0.3,0.8-0.6,0.9L256.8,258L256.8,258z" id="XMLID_44_"/></g><polygon class="st3" id="XMLID_43_" points="256.4,256.9 281.8,245.3 255.6,255.1  "/><path class="st2" d="M269.6,254.5c5.6,0.2,8.7-3.3,13.7-2.8c5,0.4,7.9-2.3,9.8-3c2-0.6,3.1,0.7,3.4,0.1   c0.3-0.6-1.3-1.8-4.1-1.4c-2.8,0.4-3.6,2.5-9.7,2c-6.1-0.5-7.6,2.5-13.2,1.8V254.5z" id="XMLID_42_"/><g><path class="st3" d="M270.1,254.6c-0.2,0-0.3,0-0.5,0l0-0.3c2.8,0.1,4.9-0.7,7-1.5c2.2-0.8,4.2-1.5,6.7-1.3    c3.7,0.3,6.1-1.1,8-2.1c0.7-0.4,1.3-0.7,1.8-0.9c1.2-0.4,2.1-0.1,2.7,0.1c0.4,0.2,0.6,0.2,0.6,0.1c-0.5-0.9-1.8-1.6-3.9-1.3    c-0.9,0.1-1.6,0.5-2.4,0.8c-1.5,0.7-3.3,1.5-7.4,1.2c-3-0.2-4.9,0.4-6.7,1c-1.9,0.6-3.6,1.2-6.5,0.8c2.8,0.1,4.6-0.5,6.4-1    c1.8-0.6,3.7-1.2,6.8-1c4,0.3,5.7-0.5,7.2-1.2c0.8-0.4,1.5-0.7,2.5-0.9c2.1-0.3,3.6,0.3,4.1,1l0.1,0.6c-0.2,0.3-0.5,0.2-0.9,0.1    c-0.6-0.2-1.4-0.5-2.5-0.1c-0.5,0.2-1.1,0.5-1.8,0.9c-1.9,1-4.4,2.4-8.1,2.1c-2.5-0.2-4.5,0.5-6.6,1.3    C274.8,253.9,272.7,254.6,270.1,254.6L270.1,254.6z" id="XMLID_41_"/></g><path class="st3" d="M270.6,253.4c5.4-0.3,7.8-3.3,12.7-2.7c-3.9-1.3-6.9,1.9-12.7,1.7L270.6,253.4z" id="XMLID_40_"/><path class="st2" d="M257.9,255.2l-17-37c0,0-0.3-0.7-0.8-0.5c-0.5,0.2-0.2,0.9-0.2,0.9l14.2,38.2L257.9,255.2z" id="XMLID_39_"/><g><path class="st3" d="M254.2,256.7l-14.4-38.1c0,0-0.2-0.4,0-0.7l0.7-0.3c0.3,0.1,0.5,0.6,0.5,0.6l17,37l-0.2,0.1    l-17.3-37.6l-0.3,0.1l-0.1,0.7L254.2,256.7L254.2,256.7z" id="XMLID_38_"/></g><polygon class="st3" id="XMLID_37_" points="256.9,255.6 245.3,230.2 255.1,256.4  "/><path class="st2" d="M254.5,242.4c0.2-5.6-3.3-8.7-2.8-13.8c0.5-5-2.3-7.9-2.9-9.8c-0.6-2,0.7-3.1,0.1-3.4   c-0.6-0.3-1.8,1.3-1.4,4c0.4,2.8,2.5,3.6,2,9.8c-0.5,6.1,2.5,7.6,1.8,13.2L254.5,242.4z" id="XMLID_36_"/><g><path class="st3" d="M254.7,242.4l-0.3,0c0.1-2.8-0.7-4.9-1.5-7c-0.8-2.1-1.6-4.2-1.3-6.7c0.3-3.6-1-6.1-2.1-7.9    c-0.4-0.7-0.7-1.3-0.9-1.8c-0.4-1.2-0.1-2.1,0.1-2.7c0.1-0.4,0.2-0.6,0.1-0.7c-0.9,0.5-1.6,1.8-1.2,3.9c0.1,0.9,0.5,1.7,0.8,2.4    c0.7,1.5,1.5,3.3,1.2,7.4c-0.2,3,0.4,4.9,1,6.7c0.6,1.9,1.2,3.6,0.8,6.5c0.1-2.8-0.5-4.5-1.1-6.4c-0.6-1.8-1.2-3.7-1-6.8    c0.3-4-0.5-5.7-1.2-7.2c-0.4-0.8-0.7-1.5-0.8-2.5c-0.3-2.1,0.3-3.5,1-4l0.6-0.1c0.3,0.2,0.2,0.5,0.1,1c-0.2,0.6-0.5,1.4-0.1,2.5    c0.2,0.5,0.5,1.1,0.9,1.8c1,1.8,2.4,4.4,2.1,8.1c-0.2,2.5,0.5,4.5,1.3,6.6C253.9,237.4,254.8,239.5,254.7,242.4L254.7,242.4z" id="XMLID_35_"/></g><path class="st3" d="M253.4,241.4c-0.3-5.4-3.3-7.8-2.7-12.7c-1.3,3.9,1.8,6.9,1.7,12.7L253.4,241.4z" id="XMLID_34_"/><path class="st2" d="M254.1,256.8l17,37c0,0,0.3,0.7,0.8,0.5c0.5-0.2,0.2-0.9,0.2-0.9l-14.2-38.2L254.1,256.8z" id="XMLID_33_"/><g><path class="st3" d="M271.9,294.4c-0.8-0.1-0.9-0.6-0.9-0.6l-17-37l0.2-0.1l17,37c0,0,0.3,0.6,0.6,0.5    c0.3-0.1,0.1-0.7,0.1-0.7l-14.2-38.2l14.4,38.1C272.3,293.6,272.4,294.2,271.9,294.4L271.9,294.4z" id="XMLID_32_"/></g><polygon class="st3" id="XMLID_31_" points="255.1,256.4 266.7,281.8 256.9,255.6  "/><path class="st2" d="M257.5,269.6c-0.2,5.6,3.3,8.7,2.8,13.8c-0.5,5,2.3,7.9,2.9,9.8c0.6,2-0.7,3.1-0.1,3.4   c0.6,0.3,1.8-1.3,1.4-4.1c-0.4-2.8-2.5-3.6-2-9.7c0.5-6.1-2.5-7.6-1.8-13.2L257.5,269.6z" id="XMLID_30_"/><g><path class="st3" d="M263.1,296.7c-0.3-0.2-0.2-0.5-0.1-1c0.2-0.6,0.5-1.4,0.1-2.5c-0.2-0.5-0.5-1.1-0.9-1.8    c-1-1.9-2.4-4.4-2.1-8.1c0.2-2.5-0.5-4.5-1.3-6.6c-0.8-2.1-1.6-4.3-1.5-7.1l0.3,0c-0.1,2.8,0.7,5,1.5,7.1c0.8,2.1,1.6,4.2,1.3,6.7    c-0.3,3.6,1,6.1,2.1,8c0.4,0.7,0.7,1.3,0.9,1.8c0.4,1.2,0.1,2.1-0.1,2.7c-0.2,0.4-0.2,0.6-0.1,0.7c0.9-0.5,1.6-1.8,1.3-3.9    c-0.1-0.9-0.5-1.6-0.8-2.4c-0.7-1.5-1.5-3.3-1.2-7.4c0.2-3-0.4-4.9-1-6.7c-0.6-1.9-1.2-3.6-0.8-6.5c-0.1,2.8,0.5,4.6,1.1,6.4    c0.6,1.8,1.2,3.7,1,6.8c-0.3,4,0.5,5.7,1.2,7.3c0.4,0.8,0.7,1.5,0.8,2.5c0.3,2.1-0.3,3.6-1,4.1L263.1,296.7L263.1,296.7z" id="XMLID_29_"/></g><path class="st3" d="M258.6,270.6c0.3,5.4,3.3,7.8,2.7,12.7c1.3-3.9-1.9-6.9-1.7-12.7L258.6,270.6z" id="XMLID_28_"/><path class="st2" d="M256,239.4c9.2,0,16.6,7.4,16.6,16.6c0,9.2-7.4,16.6-16.6,16.6c-9.2,0-16.6-7.4-16.6-16.6   C239.4,246.8,246.8,239.4,256,239.4L256,239.4z" id="XMLID_27_"/><g><path class="st3" d="M256,272.7c-9.2,0-16.7-7.5-16.7-16.7c0-9.2,7.5-16.7,16.7-16.7c9.2,0,16.7,7.5,16.7,16.7    C272.7,265.2,265.2,272.7,256,272.7L256,272.7z M256,239.5c-9.1,0-16.5,7.4-16.5,16.4c0,9.1,7.4,16.5,16.5,16.5    c9.1,0,16.5-7.4,16.5-16.5C272.5,246.9,265.1,239.5,256,239.5L256,239.5z"/></g><path class="st3" d="M266.5,252.4c-2.9-2.5-6.6-2.9-8.7-1c-1.5,2-1.3,4.3,0.4,6.8c-0.1,0-0.4,0.1-0.5,0.3   c-1.3-2.4-1.5-5-0.6-7.3C259.8,248.8,263.7,248.6,266.5,252.4L266.5,252.4z" id="XMLID_24_"/><path class="st3" d="M261.9,251.6c-1.7,0-2,0.4-2.8,1c-0.8,0.6-1.1,0.5-1.3,0.6c-0.1,0.1,0,0.5,0.3,0.4   c0.2-0.1,0.8-0.4,1.5-1c0.8-0.6,1.5-0.6,2.3-0.6c2.3,0,3.6,1.9,3.8,1.8C266,253.7,264.4,251.6,261.9,251.6L261.9,251.6z" id="XMLID_23_"/><path class="st3" d="M264.8,253.8c-1.7-1.8-4.7-1.9-6,0.1h0.5c1.3-2,4.4-1.2,4.6-0.3v0.3L264.8,253.8z" id="XMLID_22_"/><path class="st3" d="M261.6,252.5c0.6,0,1.2,0.5,1.2,1.2c0,0.6-0.5,1.2-1.2,1.2c-0.6,0-1.1-0.5-1.1-1.2   C260.5,253.1,261,252.5,261.6,252.5L261.6,252.5z" id="XMLID_21_"/><path class="st3" d="M258.8,253.9c1.3,1.2,4.1,1.3,6-0.1l-0.9-0.1c-1.3,1.4-3.3,1.3-4.6,0.3v-0.3L258.8,253.9z" id="XMLID_20_"/><path class="st3" d="M264.9,254.5c-2.2,1.7-4.3,1.5-5.6,0.8c-1.3-0.8-1.3-1-1-1c0.3,0,0.5,0.2,1.5,0.8   C260.8,255.5,262.4,255.5,264.9,254.5L264.9,254.5z" id="XMLID_19_"/><path class="st3" d="M258.7,258.3c0.4,0.1,0.6,0.6,0.5,1c-0.1,0.4-0.6,0.6-1,0.5c-0.3-0.1-0.5-0.4-0.5-0.7   c-0.1,0.3-0.6,1-1.6,1h-0.3l0.3,0.4c0.2,0,1,0,1.5-0.4c0.4,0.5,1.1,0.6,1.6,0.3c0.5-0.4,0.6-1.1,0.3-1.6   C259.2,258.5,259,258.3,258.7,258.3L258.7,258.3z" id="XMLID_18_"/><path class="st3" d="M260.2,263.6c-1.2-0.8-1.6-1.9-2.9-1.9c-0.3,0-0.8,0.1-1.3,0.4h-0.3l0.3,0.4   c0.5,0,1.3-0.6,2.2-0.1C259.1,262.9,259.6,263.4,260.2,263.6L260.2,263.6z" id="XMLID_17_"/><path class="st3" d="M259.8,263.6c-2.6-0.8-3.1-0.2-3.8-0.2h-0.3l0.3,0.5C257,263.9,257.5,263.1,259.8,263.6   L259.8,263.6z" id="XMLID_16_"/><path class="st3" d="M260.2,263.6c-2.8-0.2-1.9,1.4-4.2,1.4h-0.3l0.3,0.4C258.8,265.4,257.5,263.9,260.2,263.6   L260.2,263.6z" id="XMLID_15_"/><path class="st3" d="M258.3,267.7c0-1.3-1-2.3-2.3-2.3c-1.3,0-2.3,1-2.3,2.3c0.3-1.3,1.6-2,2.8-1.7   C257.4,266.2,258.1,266.9,258.3,267.7L258.3,267.7z" id="XMLID_14_"/><path class="st3" d="M245.5,252.4c2.9-2.5,6.6-2.9,8.7-1c1.5,2,1.3,4.3-0.4,6.8c0.1,0,0.4,0.1,0.5,0.3   c1.3-2.4,1.5-5,0.6-7.3C252.2,248.8,248.3,248.6,245.5,252.4L245.5,252.4z" id="XMLID_13_"/><path class="st3" d="M250.1,251.6c1.7,0,2,0.4,2.8,1c0.8,0.6,1.1,0.5,1.3,0.6c0.1,0.1,0,0.5-0.3,0.4   c-0.2-0.1-0.8-0.4-1.5-1c-0.8-0.6-1.5-0.6-2.3-0.6c-2.3,0-3.6,1.9-3.8,1.8C246.1,253.7,247.6,251.6,250.1,251.6L250.1,251.6z" id="XMLID_12_"/><path class="st3" d="M247.2,253.8c1.6-1.8,4.7-1.9,6,0.1h-0.5c-1.3-2-4.3-1.2-4.6-0.3v0.3L247.2,253.8z" id="XMLID_11_"/><path class="st3" d="M250.4,252.5c-0.6,0-1.1,0.5-1.1,1.2c0,0.6,0.5,1.2,1.1,1.2c0.6,0,1.1-0.5,1.1-1.2   C251.5,253.1,251,252.5,250.4,252.5L250.4,252.5z" id="XMLID_10_"/><path class="st3" d="M253.2,253.9c-1.3,1.2-4.1,1.3-6-0.1l0.9-0.1c1.3,1.4,3.3,1.3,4.6,0.3v-0.3L253.2,253.9z" id="XMLID_9_"/><path class="st3" d="M247.1,254.5c2.2,1.7,4.3,1.5,5.6,0.8c1.3-0.8,1.3-1,1-1c-0.3,0-0.5,0.2-1.5,0.8   C251.2,255.5,249.6,255.5,247.1,254.5L247.1,254.5z" id="XMLID_8_"/><path class="st3" d="M253.3,258.3c-0.4,0.1-0.6,0.6-0.5,1c0.2,0.4,0.6,0.6,1,0.5c0.3-0.1,0.5-0.4,0.5-0.7   c0.1,0.3,0.6,1,1.7,1h0.2l-0.2,0.4c-0.3,0-1,0-1.5-0.4c-0.4,0.5-1.1,0.6-1.6,0.3c-0.5-0.4-0.6-1.1-0.3-1.6   C252.8,258.5,253,258.3,253.3,258.3L253.3,258.3z" id="XMLID_7_"/><path class="st3" d="M251.8,263.6c1.1-0.8,1.6-1.9,2.9-1.9c0.3,0,0.8,0.1,1.3,0.4h0.2l-0.2,0.4   c-0.5,0-1.3-0.6-2.2-0.1C252.9,262.9,252.4,263.4,251.8,263.6L251.8,263.6z" id="XMLID_6_"/><path class="st3" d="M252.2,263.6c2.5-0.8,3.1-0.2,3.8-0.2h0.2l-0.2,0.5C255,263.9,254.5,263.1,252.2,263.6   L252.2,263.6z" id="XMLID_5_"/><path class="st3" d="M251.8,263.6c2.8-0.2,1.9,1.4,4.2,1.4h0.2l-0.2,0.4C253.2,265.4,254.5,263.9,251.8,263.6   L251.8,263.6z" id="XMLID_4_"/><path class="st3" d="M253.7,267.7c0-1.3,1-2.3,2.3-2.3c1.3,0,2.3,1,2.3,2.3c-0.3-1.3-1.6-2-2.8-1.7   C254.6,266.2,253.9,266.9,253.7,267.7L253.7,267.7z" id="XMLID_3_"/></g></svg>